<?xml version="1.0" encoding="utf-8"?>
<svg version="1.1" id="Layer_1" xmlns="http://www.w3.org/2000/svg" xmlns:xlink="http://www.w3.org/1999/xlink" x="0px" y="0px"
	 viewBox="0 0 120 42" style="enable-background:new 0 0 120 42;" xml:space="preserve">
<style type="text/css">
	.st0{fill:#D1D3D4;}
	.st1{fill:#FFFFFF;}
	.st2{fill:#231916;}
</style>
	<g>
	<g>
		<g>
			<path class="st0" d="M119.59,18.58c-0.29-0.84-0.71-1.66-1.31-2.5c-0.61-0.86-1.34-1.68-2.25-2.51c-0.96-0.87-2.05-1.7-3.34-2.53
				c-1.31-0.84-2.73-1.63-4.34-2.4c-1.62-0.77-3.33-1.48-5.24-2.17c-3.69-1.34-7.66-2.45-12.15-3.41c-2.28-0.48-4.66-0.92-7.08-1.29
				c-1.79-0.27-3.64-0.52-5.49-0.73c-2.4-0.27-4.85-0.49-7.27-0.65c-2.35-0.16-4.81-0.26-7.29-0.32c-1.29-0.03-2.59-0.04-3.87-0.04
				c-1.14,0-2.29,0.01-3.42,0.03c-4.9,0.1-9.8,0.42-14.56,0.95c-5.82,0.65-11.1,1.56-16.14,2.79c-2.27,0.55-4.34,1.13-6.32,1.77
				c-1.01,0.33-2.01,0.67-2.95,1.02c-0.92,0.34-1.77,0.67-2.58,1.02c-1.68,0.7-3.19,1.43-4.63,2.23c-0.71,0.39-1.38,0.79-2.02,1.2
				c-1.28,0.82-2.37,1.65-3.34,2.53c-0.91,0.83-1.65,1.65-2.25,2.51c-0.59,0.84-1.02,1.66-1.31,2.5C0.14,19.39,0,20.2,0,21
				c0,0.8,0.14,1.61,0.41,2.42c0.29,0.84,0.71,1.66,1.31,2.5c0.61,0.86,1.34,1.68,2.25,2.51c0.96,0.88,2.06,1.71,3.34,2.53
				c1.32,0.85,2.74,1.63,4.34,2.4c1.62,0.77,3.33,1.48,5.24,2.18c3.69,1.34,7.66,2.45,12.15,3.41c2.27,0.48,4.66,0.91,7.08,1.28
				c1.78,0.27,3.63,0.52,5.49,0.73c2.41,0.27,4.86,0.5,7.27,0.65c2.35,0.16,4.81,0.27,7.29,0.32c1.28,0.03,2.57,0.04,3.84,0.04
				c1.15,0,2.31-0.01,3.45-0.03c4.9-0.1,9.8-0.42,14.56-0.95c5.81-0.65,11.09-1.56,16.14-2.79c2.25-0.55,4.32-1.13,6.32-1.77
				c0.99-0.32,1.98-0.66,2.95-1.02c0.91-0.34,1.76-0.67,2.59-1.02c1.65-0.69,3.21-1.44,4.63-2.23c0.7-0.39,1.38-0.79,2.02-1.2
				c1.28-0.82,2.37-1.65,3.34-2.54c0.91-0.83,1.64-1.65,2.25-2.5c0.6-0.84,1.02-1.66,1.31-2.5c0.27-0.8,0.41-1.62,0.41-2.42
				C120,20.2,119.86,19.38,119.59,18.58z M118.41,22.96c-0.27,0.78-0.67,1.49-1.13,2.15c-0.6,0.85-1.31,1.6-2.06,2.29
				c-0.99,0.9-2.07,1.69-3.18,2.4c-0.64,0.41-1.29,0.79-1.95,1.16c-1.46,0.81-2.98,1.53-4.51,2.17c-0.84,0.35-1.69,0.68-2.54,1
				c-0.96,0.36-1.93,0.69-2.9,1c-2.06,0.67-4.14,1.24-6.24,1.75c-5.27,1.28-10.62,2.17-16,2.76c-4.8,0.54-9.63,0.84-14.45,0.94
				c-2.41,0.05-4.83,0.05-7.25-0.01c-2.41-0.05-4.83-0.16-7.24-0.32c-2.41-0.16-4.82-0.38-7.22-0.65c-1.82-0.21-3.64-0.45-5.45-0.72
				c-2.35-0.36-4.69-0.78-7.01-1.27c-4.06-0.86-8.08-1.94-11.99-3.36c-1.74-0.63-3.45-1.33-5.13-2.13
				c-1.44-0.69-2.85-1.45-4.21-2.32c-1.11-0.71-2.19-1.5-3.18-2.4c-0.75-0.69-1.46-1.44-2.06-2.29c-0.46-0.66-0.87-1.37-1.13-2.15
				C1.38,22.33,1.26,21.66,1.26,21c0-0.67,0.12-1.33,0.34-1.96c0.26-0.78,0.67-1.49,1.13-2.15c0.6-0.85,1.31-1.6,2.06-2.29
				c0.99-0.9,2.06-1.69,3.18-2.4c0.64-0.41,1.29-0.79,1.95-1.16c1.47-0.81,2.98-1.53,4.52-2.17c0.84-0.35,1.68-0.68,2.53-0.99
				c0.96-0.36,1.93-0.69,2.9-1.01c2.06-0.66,4.14-1.24,6.24-1.75c5.27-1.29,10.62-2.17,16-2.76c4.8-0.53,9.63-0.84,14.45-0.94
				c2.41-0.05,4.83-0.05,7.24,0.01c2.41,0.05,4.83,0.16,7.24,0.32c2.41,0.16,4.82,0.38,7.22,0.65c1.82,0.21,3.64,0.45,5.45,0.72
				c2.35,0.36,4.69,0.78,7.01,1.27c4.06,0.86,8.08,1.94,12,3.36c1.73,0.63,3.45,1.33,5.13,2.13c1.44,0.69,2.85,1.45,4.21,2.32
				c1.11,0.71,2.19,1.5,3.18,2.4c0.76,0.69,1.46,1.44,2.06,2.29c0.46,0.66,0.86,1.37,1.13,2.15c0.21,0.63,0.34,1.29,0.34,1.96
				C118.74,21.67,118.62,22.33,118.41,22.96z"/>
			<path d="M118.41,19.04c-0.27-0.78-0.67-1.49-1.13-2.15c-0.6-0.85-1.31-1.61-2.06-2.29c-0.99-0.9-2.07-1.69-3.18-2.4
				c-1.35-0.87-2.77-1.63-4.21-2.32c-1.68-0.8-3.39-1.5-5.13-2.13c-3.92-1.42-7.94-2.5-12-3.36c-2.33-0.49-4.66-0.91-7.01-1.27
				c-1.81-0.27-3.63-0.52-5.45-0.72c-2.4-0.27-4.81-0.49-7.22-0.65c-2.41-0.16-4.82-0.26-7.24-0.32c-2.42-0.05-4.83-0.06-7.24-0.01
				c-4.83,0.1-9.65,0.4-14.45,0.94c-5.38,0.6-10.72,1.48-16,2.76c-2.09,0.51-4.18,1.09-6.24,1.75c-0.97,0.32-1.94,0.65-2.9,1.01
				c-0.85,0.31-1.7,0.64-2.53,0.99c-1.54,0.64-3.05,1.36-4.52,2.17C9.25,11.4,8.6,11.79,7.96,12.2c-1.11,0.71-2.19,1.5-3.18,2.4
				c-0.75,0.69-1.46,1.44-2.06,2.29c-0.46,0.66-0.87,1.37-1.13,2.15C1.38,19.67,1.26,20.33,1.26,21c0,0.67,0.12,1.33,0.34,1.96
				c0.26,0.78,0.67,1.49,1.13,2.15c0.6,0.85,1.31,1.61,2.06,2.29c0.99,0.9,2.06,1.69,3.18,2.4c1.36,0.87,2.77,1.63,4.21,2.32
				c1.68,0.8,3.39,1.5,5.13,2.13c3.92,1.43,7.94,2.5,11.99,3.36c2.33,0.49,4.67,0.91,7.01,1.27c1.81,0.27,3.63,0.52,5.45,0.72
				c2.4,0.27,4.81,0.49,7.22,0.65c2.41,0.16,4.82,0.26,7.24,0.32c2.42,0.05,4.83,0.06,7.25,0.01c4.83-0.1,9.65-0.4,14.45-0.94
				c5.37-0.6,10.72-1.48,16-2.76c2.1-0.51,4.18-1.09,6.24-1.75c0.97-0.32,1.94-0.65,2.9-1c0.85-0.31,1.7-0.65,2.54-1
				c1.53-0.64,3.05-1.36,4.51-2.17c0.66-0.37,1.31-0.75,1.95-1.16c1.11-0.71,2.19-1.5,3.18-2.4c0.76-0.69,1.46-1.44,2.06-2.29
				c0.46-0.66,0.86-1.37,1.13-2.15c0.21-0.63,0.34-1.29,0.34-1.96C118.74,20.33,118.62,19.67,118.41,19.04z M60,36.68
				c-0.9,0-1.79-0.01-2.68-0.02c-0.29-0.01-0.58-0.02-0.87-0.02c-0.6-0.01-1.19-0.03-1.78-0.05c-0.33-0.01-0.66-0.03-0.99-0.04
				c-0.54-0.02-1.08-0.05-1.62-0.07c-0.34-0.02-0.68-0.04-1.01-0.06c-0.53-0.03-1.05-0.06-1.57-0.1c-0.33-0.02-0.65-0.05-0.98-0.07
				c-0.53-0.04-1.05-0.08-1.57-0.13c-0.31-0.03-0.61-0.05-0.92-0.08c-0.54-0.05-1.08-0.11-1.62-0.16c-0.27-0.03-0.54-0.06-0.81-0.09
				c-0.59-0.07-1.18-0.14-1.76-0.21c-0.2-0.03-0.41-0.05-0.61-0.08c-0.73-0.09-1.44-0.2-2.15-0.3c-0.05-0.01-0.1-0.02-0.16-0.02
				c-1.59-0.24-3.13-0.51-4.62-0.8c0,0-0.01,0-0.01,0c-0.72-0.14-1.43-0.29-2.12-0.44c-0.09-0.02-0.17-0.04-0.26-0.06
				c-0.61-0.14-1.22-0.28-1.81-0.42c-0.11-0.03-0.22-0.06-0.33-0.08c-0.57-0.14-1.12-0.29-1.67-0.44c-0.11-0.03-0.22-0.06-0.33-0.09
				c-0.55-0.15-1.08-0.31-1.6-0.47c-0.09-0.03-0.19-0.06-0.28-0.08c-0.55-0.17-1.08-0.34-1.6-0.52c-0.06-0.02-0.12-0.04-0.18-0.06
				c-0.58-0.2-1.14-0.4-1.68-0.61H17.5c-0.65,0-1.26-0.32-1.64-0.85c-0.37-0.53-0.46-1.22-0.23-1.83l0.2-0.54
				c-0.11-0.07-0.21-0.14-0.31-0.21c-0.2-0.13-0.39-0.27-0.57-0.4c-0.12-0.09-0.23-0.17-0.34-0.26c-0.2-0.16-0.39-0.31-0.58-0.47
				c-0.08-0.07-0.17-0.14-0.25-0.22c-0.2-0.18-0.4-0.36-0.58-0.55c-0.07-0.07-0.13-0.14-0.2-0.21c-0.18-0.19-0.35-0.38-0.51-0.58
				c-0.05-0.05-0.09-0.11-0.13-0.17c-0.15-0.19-0.29-0.38-0.42-0.58c-0.02-0.04-0.05-0.07-0.07-0.11c-0.13-0.21-0.25-0.43-0.36-0.64
				c-0.02-0.05-0.05-0.1-0.07-0.14c-0.1-0.22-0.19-0.44-0.26-0.66c-0.02-0.05-0.03-0.1-0.05-0.14c-0.07-0.23-0.12-0.46-0.16-0.69
				c-0.01-0.04-0.01-0.07-0.01-0.11c-0.04-0.24-0.06-0.49-0.06-0.74c0-8.66,21.99-15.68,49.11-15.68c0.89,0,1.78,0.01,2.66,0.02
				c0.28,0.01,0.56,0.01,0.84,0.02c0.6,0.01,1.19,0.03,1.78,0.05c0.32,0.01,0.64,0.03,0.96,0.04c0.55,0.02,1.09,0.04,1.63,0.07
				c0.33,0.02,0.65,0.04,0.97,0.06c0.53,0.03,1.06,0.06,1.59,0.1c0.31,0.02,0.63,0.05,0.94,0.07c0.54,0.04,1.07,0.08,1.6,0.13
				c0.29,0.03,0.58,0.05,0.87,0.08c0.55,0.05,1.1,0.11,1.64,0.17C75.74,6.15,76,6.18,76.25,6.2c0.59,0.07,1.17,0.14,1.74,0.21
				c0.2,0.03,0.4,0.05,0.6,0.08c0.65,0.08,1.3,0.18,1.94,0.27c0.11,0.02,0.23,0.03,0.35,0.05c5.49,0.83,10.43,1.97,14.58,3.35
				c0,0,0.01,0,0.01,0c0.59,0.2,1.17,0.4,1.73,0.61h0h5.29c0.65,0,1.26,0.32,1.64,0.85c0.24,0.34,0.36,0.74,0.36,1.14
				c0,0.23-0.04,0.47-0.12,0.69l-0.24,0.65c0.14,0.09,0.26,0.18,0.39,0.27c0.16,0.11,0.32,0.22,0.48,0.34
				c0.17,0.12,0.33,0.24,0.48,0.36c0.16,0.12,0.31,0.25,0.46,0.37c0.1,0.08,0.2,0.17,0.3,0.25c0.19,0.17,0.37,0.34,0.55,0.52
				c0.08,0.08,0.16,0.16,0.24,0.24c0.17,0.18,0.34,0.37,0.49,0.55c0.05,0.07,0.11,0.13,0.16,0.2c0.14,0.18,0.28,0.36,0.4,0.55
				c0.03,0.05,0.07,0.1,0.1,0.16c0.12,0.2,0.24,0.4,0.34,0.6c0.03,0.05,0.05,0.1,0.08,0.15c0.1,0.22,0.19,0.44,0.26,0.66
				c0.02,0.05,0.03,0.1,0.05,0.15c0.07,0.22,0.12,0.45,0.16,0.68c0.01,0.04,0.01,0.07,0.01,0.11c0.04,0.24,0.06,0.49,0.06,0.73
				C109.11,29.66,87.12,36.68,60,36.68z"/>
			<path class="st1" d="M109.04,20.15c-0.04-0.23-0.1-0.46-0.16-0.68c-0.02-0.05-0.03-0.1-0.05-0.15c-0.07-0.22-0.16-0.44-0.26-0.66
				c-0.02-0.05-0.05-0.1-0.08-0.15c-0.1-0.2-0.21-0.4-0.34-0.6c-0.03-0.05-0.07-0.1-0.1-0.16c-0.12-0.18-0.26-0.37-0.4-0.55
				c-0.05-0.07-0.1-0.13-0.16-0.2c-0.15-0.19-0.32-0.37-0.49-0.55c-0.08-0.08-0.16-0.16-0.24-0.24c-0.17-0.17-0.36-0.35-0.55-0.52
				c-0.1-0.08-0.2-0.17-0.3-0.25c-0.15-0.12-0.3-0.25-0.46-0.37c-0.16-0.12-0.32-0.24-0.48-0.36c-0.16-0.11-0.31-0.23-0.48-0.34
				c-0.13-0.09-0.26-0.18-0.39-0.27l0,0l0.24-0.65c0.08-0.22,0.12-0.46,0.12-0.69c0-0.4-0.12-0.8-0.36-1.14
				c-0.37-0.53-0.99-0.85-1.64-0.85h-5.29h0c-0.56-0.21-1.14-0.41-1.73-0.61c0,0-0.01,0-0.01,0c-4.15-1.38-9.09-2.52-14.58-3.35
				c-0.11-0.02-0.23-0.03-0.35-0.05c-0.64-0.09-1.29-0.18-1.94-0.27c-0.2-0.03-0.4-0.05-0.6-0.08c-0.58-0.07-1.16-0.14-1.74-0.21
				C76,6.18,75.74,6.15,75.49,6.12c-0.54-0.06-1.09-0.11-1.64-0.17c-0.29-0.03-0.58-0.05-0.87-0.08c-0.53-0.05-1.06-0.09-1.6-0.13
				c-0.31-0.02-0.62-0.05-0.94-0.07c-0.53-0.04-1.06-0.07-1.59-0.1c-0.32-0.02-0.65-0.04-0.97-0.06c-0.54-0.03-1.09-0.05-1.63-0.07
				c-0.32-0.01-0.64-0.03-0.96-0.04c-0.59-0.02-1.19-0.04-1.78-0.05c-0.28-0.01-0.56-0.02-0.84-0.02C61.78,5.33,60.89,5.32,60,5.32
				c-27.13,0-49.11,7.02-49.11,15.68c0,0.25,0.02,0.49,0.06,0.74c0.01,0.04,0.01,0.07,0.01,0.11c0.04,0.23,0.1,0.46,0.16,0.69
				c0.01,0.05,0.03,0.09,0.05,0.14c0.07,0.22,0.16,0.44,0.26,0.66c0.02,0.05,0.05,0.09,0.07,0.14c0.11,0.22,0.22,0.43,0.36,0.64
				c0.02,0.04,0.05,0.07,0.07,0.11c0.13,0.19,0.27,0.39,0.42,0.58c0.04,0.06,0.08,0.11,0.13,0.17c0.16,0.2,0.33,0.39,0.51,0.58
				c0.07,0.07,0.13,0.14,0.2,0.21c0.18,0.19,0.38,0.37,0.58,0.55c0.08,0.07,0.17,0.14,0.25,0.22c0.19,0.16,0.38,0.31,0.58,0.47
				c0.11,0.09,0.23,0.17,0.34,0.26c0.19,0.13,0.38,0.27,0.57,0.4c0.1,0.07,0.2,0.14,0.31,0.21l0,0l-0.2,0.54
				c-0.23,0.61-0.14,1.3,0.23,1.83c0.37,0.54,0.99,0.85,1.64,0.85h4.91l0,0c0.55,0.21,1.11,0.41,1.68,0.61
				c0.06,0.02,0.12,0.04,0.18,0.06c0.52,0.18,1.05,0.35,1.6,0.52c0.09,0.03,0.19,0.06,0.28,0.08c0.52,0.16,1.06,0.32,1.6,0.47
				c0.11,0.03,0.22,0.06,0.33,0.09c0.55,0.15,1.1,0.29,1.67,0.44c0.11,0.03,0.22,0.05,0.33,0.08c0.59,0.14,1.19,0.28,1.81,0.42
				c0.09,0.02,0.17,0.04,0.26,0.06c0.7,0.15,1.4,0.3,2.12,0.44c0,0,0.01,0,0.01,0c1.49,0.29,3.03,0.56,4.62,0.8
				c0.05,0.01,0.11,0.01,0.16,0.02c0.71,0.11,1.42,0.21,2.15,0.3c0.2,0.03,0.41,0.05,0.61,0.08c0.58,0.07,1.17,0.15,1.76,0.21
				c0.27,0.03,0.54,0.06,0.81,0.09c0.54,0.06,1.08,0.11,1.62,0.16c0.3,0.03,0.61,0.06,0.92,0.08c0.52,0.05,1.05,0.09,1.57,0.13
				c0.33,0.03,0.65,0.05,0.98,0.07c0.52,0.04,1.04,0.07,1.57,0.1c0.34,0.02,0.67,0.04,1.01,0.06c0.54,0.03,1.08,0.05,1.62,0.07
				c0.33,0.01,0.66,0.03,0.99,0.04c0.59,0.02,1.18,0.04,1.78,0.05c0.29,0.01,0.57,0.02,0.87,0.02c0.89,0.02,1.78,0.02,2.68,0.02
				c27.13,0,49.11-7.02,49.11-15.68c0-0.25-0.02-0.49-0.06-0.73C109.05,20.23,109.05,20.19,109.04,20.15z"/>
		</g>
		<g>
			<g>
				<g>
					<path class="st2" d="M47.87,12.32c-0.15-0.21-0.38-0.33-0.64-0.33h-8.57c-0.39,0-0.6,0.15-0.73,0.51l-2.31,6.27
						c-0.1,0.27-0.23,0.37-0.53,0.37h-3.72c-0.19,0-0.36-0.09-0.46-0.24c-0.11-0.15-0.13-0.34-0.07-0.52l1.97-5.34
						c0.09-0.24,0.05-0.51-0.09-0.72c-0.15-0.21-0.38-0.33-0.64-0.33h-8.57c-0.38,0-0.6,0.15-0.73,0.51l-6.01,16.33
						c-0.09,0.24-0.05,0.5,0.09,0.71c0.14,0.21,0.38,0.33,0.64,0.33h8.57c0.39,0,0.6-0.15,0.73-0.51l2.02-5.49
						c0.1-0.28,0.24-0.37,0.53-0.37h3.72c0.19,0,0.36,0.09,0.46,0.24c0.11,0.15,0.13,0.34,0.07,0.52l-1.68,4.56
						c-0.09,0.24-0.05,0.5,0.09,0.71c0.14,0.21,0.38,0.33,0.64,0.33h8.06c0.92,0,1.27-0.56,1.39-0.89l5.86-15.94
						C48.05,12.8,48.01,12.53,47.87,12.32z"/>
				</g>
			</g>
			<g>
				<g>
					<path class="st2" d="M75.37,12.31c-0.15-0.2-0.37-0.32-0.62-0.32h-8.81c-0.39,0-0.6,0.15-0.73,0.51L60.2,26.09
						c-0.1,0.28-0.23,0.37-0.53,0.37h-3.19c-0.19,0-0.36-0.09-0.46-0.24c-0.11-0.15-0.13-0.34-0.06-0.52l1.39-3.78
						c0.09-0.24,0.05-0.51-0.09-0.71c-0.15-0.21-0.38-0.33-0.64-0.33H47.8c-0.39,0-0.6,0.15-0.73,0.51l-2.74,7.44
						c-0.09,0.24-0.05,0.5,0.09,0.71c0.15,0.21,0.39,0.33,0.64,0.33l23.01,0.01c0.86,0,1.47-0.49,1.82-1.45l2.05-5.55
						c1.21-3.25,2.36-6.32,3.55-9.85C75.56,12.79,75.52,12.52,75.37,12.31z"/>
				</g>
			</g>
			<g>
				<g>
					<path class="st2" d="M103.13,12.32c-0.15-0.21-0.38-0.33-0.64-0.33H79.49c-0.4,0-0.97,0.32-1.16,0.78
						c-1.43,3.51-2.67,7.03-3.88,10.44l-2.01,5.62c-0.09,0.24-0.05,0.5,0.09,0.71c0.15,0.21,0.38,0.33,0.64,0.33h22.84
						c0.63,0,1.17-0.39,1.32-0.77c0.41-0.99,0.71-1.86,1.02-2.77l0.58-1.65c0.09-0.24,0.05-0.5-0.09-0.71
						c-0.15-0.21-0.38-0.33-0.64-0.33h-8.62c-0.39,0-0.6,0.15-0.73,0.51l-0.78,2.11c-0.1,0.28-0.23,0.37-0.53,0.37h-3.12
						c-0.19,0-0.36-0.09-0.47-0.24c-0.11-0.16-0.13-0.34-0.07-0.52l3.74-10.15c0.1-0.27,0.24-0.37,0.53-0.37h3.12
						c0.19,0,0.36,0.09,0.47,0.24c0.1,0.16,0.13,0.34,0.06,0.52l-0.78,2.04c-0.09,0.24-0.06,0.5,0.09,0.71
						c0.14,0.21,0.38,0.33,0.64,0.33h8.62c0.38,0,0.6-0.15,0.73-0.51l2.11-5.64C103.31,12.8,103.28,12.53,103.13,12.32z"/>
				</g>
			</g>
		</g>
		<g>
			<g>
				<g>
					<path class="st2" d="M76.16,33.62l-0.02-0.04l0.76-0.17l0.02,0.04c0.13,0.24,0.41,0.36,0.89,0.37l0,0
						c0.27,0,0.47-0.04,0.59-0.11l0,0c0.13-0.08,0.19-0.16,0.2-0.24l0,0c0-0.01,0-0.02,0-0.03l0,0c-0.01-0.03-0.02-0.06-0.05-0.08
						l0,0c-0.04-0.04-0.09-0.06-0.16-0.09l0,0c-0.07-0.02-0.22-0.05-0.45-0.09l0,0c-0.32-0.06-0.56-0.11-0.72-0.17l0,0
						c-0.16-0.05-0.3-0.13-0.4-0.24l0,0c-0.08-0.08-0.12-0.17-0.14-0.27l0,0c-0.01-0.04-0.01-0.07-0.01-0.11l0,0
						c0.01-0.25,0.17-0.45,0.45-0.6l0,0c0.28-0.15,0.66-0.22,1.12-0.22l0,0c0.68,0,1.17,0.19,1.42,0.56l0,0l-0.04,0.02l0.04-0.02
						l0.03,0.04l-0.77,0.18l-0.02-0.04c-0.12-0.19-0.34-0.28-0.7-0.28l0,0c-0.22,0-0.39,0.03-0.5,0.09l0,0
						c-0.12,0.07-0.18,0.14-0.18,0.22l0,0c0,0.01,0,0.02,0,0.03l0,0c0.01,0.05,0.03,0.08,0.09,0.11l0,0
						c0.07,0.04,0.2,0.08,0.39,0.11l0,0l0.55,0.1c0.16,0.03,0.32,0.07,0.46,0.14l0,0c0.15,0.06,0.26,0.15,0.33,0.25l0,0
						c0.05,0.07,0.08,0.14,0.09,0.22l0,0c0.01,0.03,0.01,0.06,0.01,0.09l0,0c-0.01,0.24-0.17,0.45-0.46,0.63l0,0
						c-0.29,0.17-0.71,0.26-1.23,0.26l0,0c0,0-0.01,0-0.01,0l0,0C76.93,34.28,76.39,34.06,76.16,33.62L76.16,33.62z"/>
				</g>
			</g>
			<polygon class="st2" points="41.24,31.64 42.25,31.64 41.91,32.57 43.25,32.57 43.6,31.64 44.6,31.64 43.66,34.21 42.65,34.21
				43.04,33.15 41.7,33.15 41.31,34.21 40.3,34.21 			"/>
			<polygon class="st2" points="47.48,31.64 50.57,31.64 50.36,32.21 48.28,32.21 48.13,32.62 50.05,32.62 49.86,33.14 47.94,33.14
				47.76,33.63 49.86,33.63 49.64,34.21 46.55,34.21 			"/>
			<polygon class="st2" points="53.43,31.64 54.44,31.64 53.71,33.63 55.52,33.63 55.3,34.21 52.49,34.21 			"/>
			<polygon class="st2" points="58.56,31.64 59.95,31.64 60.04,33.47 60.05,33.47 61.48,31.64 62.86,31.64 61.92,34.21 60.97,34.21
				61.8,32.16 61.79,32.16 60.15,34.21 59.38,34.21 59.26,32.16 59.25,32.16 58.57,34.21 57.62,34.21 			"/>
			<polygon class="st2" points="65.71,31.64 68.79,31.64 68.58,32.21 66.5,32.21 66.35,32.62 68.27,32.62 68.08,33.14 66.16,33.14
				65.99,33.63 68.08,33.63 67.87,34.21 64.77,34.21 			"/>
			<polygon class="st2" points="74.32,32.21 73.18,32.21 72.44,34.21 71.44,34.21 72.18,32.21 71.04,32.21 71.24,31.64 74.52,31.64
							"/>
		</g>
	</g>
</g>
</svg>

